<svg xmlns="http://www.w3.org/2000/svg" xmlns:xlink="http://www.w3.org/1999/xlink" width="500" zoomAndPan="magnify" viewBox="0 0 375 374.999991" height="500" preserveAspectRatio="xMidYMid meet" version="1.0"><defs><clipPath id="cbdc23ec5b"><path d="M 9 16.875 L 375 16.875 L 375 358.125 L 9 358.125 Z M 9 16.875 " clip-rule="nonzero"/></clipPath></defs><g clip-path="url(#cbdc23ec5b)"><path fill="#a16207" d="M 209.972656 243.777344 L 291.132812 16.972656 L 375 16.972656 L 375 25.613281 L 347.300781 25.613281 L 347.300781 349.386719 L 375 349.386719 L 375 358.027344 L 256.863281 358.027344 L 256.863281 348.75 L 285.519531 348.75 L 286 75.691406 L 281.824219 74.734375 C 266.140625 121.148438 250.457031 167.402344 234.613281 213.496094 C 221.160156 252.863281 207.390625 292.230469 193.652344 331.597656 L 179.242188 332.394531 L 151.222656 253.183594 C 152.019531 253.023438 152.816406 253.023438 153.613281 252.863281 C 167.066406 251.429688 181.792969 251.90625 195.375 252.226562 C 202.132812 252.417969 207.421875 248.878906 209.972656 243.777344 Z M 160.214844 76.839844 C 171.5625 146.617188 121.640625 172.054688 92.507812 216.394531 C 54.09375 275.144531 92.1875 343.648438 161.648438 339.792969 C 132.671875 351.96875 104.207031 346.039062 83.867188 326.339844 C 61.140625 304.566406 52.34375 266.15625 62.253906 236.066406 C 81.125 178.941406 164.515625 160.546875 160.214844 76.839844 Z M 156.992188 79.230469 C 145.644531 134.28125 115.554688 162.300781 78.734375 170.300781 C 54.574219 175.433594 16.800781 169.984375 21.929688 137.183594 C 23.523438 127.109375 30.730469 118.628906 40.324219 115.089844 C 52.023438 110.757812 68.980469 113.976562 73.125 127.269531 C 74.71875 132.082031 74.242188 137.339844 71.691406 141.835938 C 61.457031 160.070312 38.410156 146.648438 47.527344 132.082031 C 39.050781 136.894531 43.035156 150.15625 53.777344 153.535156 C 65.125 157.042969 76.027344 148.5625 78.097656 137.375 C 79.214844 131.285156 77.9375 124.558594 73.605469 119.140625 C 59.515625 101.226562 29.902344 106.964844 17.4375 123.953125 C 0 147.320312 12.464844 172.917969 37.933594 181.234375 C 83.199219 196.25 157.152344 152.546875 156.992188 79.230469 Z M 110.582031 124.367188 C 117.308594 111.554688 129.804688 101.160156 143.0625 100.363281 C 137.132812 130.773438 120.175781 151.589844 83.835938 152.707031 C 108.347656 127.269531 97.605469 103.265625 144.019531 85.476562 C 131.714844 92.683594 112.492188 105.179688 110.582031 124.367188 Z M 86.738281 127.746094 C 87.695312 121.816406 91.230469 115.886719 96.332031 113.816406 C 98.246094 126.632812 94.261719 137.183594 80.011719 142.632812 C 86.257812 129.179688 78.734375 121.179688 94.738281 107.726562 C 90.882812 112.222656 84.984375 119.90625 86.738281 127.746094 Z M 53.777344 211.613281 C 63.847656 207.121094 72.488281 198.164062 73.796875 188.089844 C 50.269531 190.957031 33.472656 202.976562 30.730469 230.519531 C 51.386719 213.082031 69.140625 222.675781 85.300781 188.089844 C 79.054688 197.207031 68.503906 211.136719 53.777344 211.613281 Z M 164.515625 70.910156 C 185.171875 97.304688 203.246094 124.367188 194.925781 157.328125 C 199.582031 163.894531 206.785156 169.503906 212.523438 175.882812 C 220.683594 184.679688 220.683594 188.21875 212.84375 189.8125 C 210.132812 190.449219 207.550781 191.40625 205 192.679688 C 201.144531 194.59375 201.492188 196.027344 203.726562 200.203125 C 205.480469 203.390625 207.230469 205.015625 207.390625 207.726562 C 207.550781 211.902344 205.480469 213.015625 202.257812 215.089844 C 206.914062 216.523438 208.1875 220.699219 202.417969 222.773438 C 201.144531 223.25 201.300781 224.367188 201.621094 225.800781 C 202.257812 228.03125 203.695312 230.453125 204.492188 232.367188 C 207.996094 240.847656 200.984375 245.976562 195.53125 245.820312 C 156.644531 244.863281 132.800781 245.023438 122.058594 261.660156 C 102.355469 292.390625 122.695312 320.410156 162.539062 337.050781 C 75.804688 326.019531 62.351562 253.820312 123.808594 187.261719 C 146.125 163.097656 173.632812 132.367188 164.515625 70.910156 Z M 72.808594 109.320312 C 72.808594 96.984375 72.648438 85.636719 72.488281 75.246094 C 72.328125 60.996094 72.011719 49.328125 71.53125 40.179688 C 70.894531 31.222656 70.417969 26.410156 69.777344 25.613281 L 32.324219 25.613281 L 32.324219 16.972656 L 131.078125 16.972656 L 152.210938 77.796875 C 143.734375 79.070312 119.890625 83.882812 101.304688 111.871094 L 86.097656 68.648438 L 81.921875 70.082031 L 81.921875 119.523438 C 79.375 115.730469 76.503906 112.222656 72.808594 109.320312 Z M 72.808594 109.320312 " fill-opacity="1" fill-rule="evenodd"/></g></svg>